<?xml version="1.0" encoding="UTF-8" standalone="no"?>
<!DOCTYPE svg PUBLIC "-//W3C//DTD SVG 1.1//EN" "http://www.w3.org/Graphics/SVG/1.1/DTD/svg11.dtd">
<svg width="100%" height="100%" viewBox="0 0 50 61" version="1.1" xmlns="http://www.w3.org/2000/svg" xmlns:xlink="http://www.w3.org/1999/xlink" xml:space="preserve" style="fill-rule:evenodd;clip-rule:evenodd;stroke-linejoin:round;stroke-miterlimit:1.41421;">
    <g transform="matrix(1,0,0,1,-3550.58,-3765.3)">
        <g transform="matrix(1,0,0,5.55375,2932.13,3700.23)">
            <g transform="matrix(0.330356,0,0,0.0594834,431.487,-6.60718)">
                <path d="M565.946,491.997L565.946,356.413C565.946,350.429 570.479,344.356 576.062,342.86L704.782,308.37C710.365,306.874 714.898,310.518 714.898,316.502L714.898,413.817C714.898,419.801 710.365,425.874 704.782,427.37L608.041,453.291C599.574,455.56 592.648,461.38 586.908,467.962C577.753,478.46 565.946,491.997 565.946,491.997ZM663.119,357.596L663.104,339.436L670.285,337.512C670.851,337.36 671.324,337.739 671.325,338.347L671.343,357.246C671.815,356.006 672.854,355.019 674.082,354.69L684.097,352.006L684.102,359.296C684.103,359.903 683.631,360.435 683.064,360.587L671.348,363.726L671.369,391.98C671.371,395.321 673.83,397.295 676.947,396.459L685.451,394.181C686.018,394.029 686.49,394.409 686.491,395.016L686.496,402.306L676.954,404.863C669.395,406.888 663.155,401.978 663.148,393.777L663.126,365.86C663.002,365.918 651.42,369.035 651.42,369.035L651.446,404.775C651.449,408.42 648.711,412.09 645.31,413.002L608.179,422.951C600.526,425.001 594.38,420.066 594.374,411.865L594.348,376.025L601.528,374.101C602.095,373.949 602.568,374.227 602.568,374.835L602.594,410.068C602.597,413.409 605.055,415.383 608.173,414.548L620.455,411.256C619.51,411.003 618.848,410.067 618.847,408.852L618.818,369.468L625.999,367.544C626.566,367.392 627.038,367.671 627.039,368.278L627.068,408.371C627.069,408.978 627.447,409.383 628.014,409.231L642.28,405.408C642.847,405.257 643.225,404.649 643.224,404.042L643.225,404.143L643.195,363.949C643.194,363.342 643.667,362.81 644.233,362.658L663.119,357.596Z" style="fill:black;"/>
            </g>
        </g>
    </g>
</svg>
